<svg xmlns="http://www.w3.org/2000/svg" viewBox="17 13.6 66 66" fill="#e8a33d"><path d="M 22.69 64.77 A 28.8 28.8 0 0 1 22.92 45.83 L 27.36 47.67 A 24 24 0 0 0 27.24 63.25 Z M 23.93 43.39 A 28.8 28.8 0 0 1 37.78 29.56 L 39.61 34 A 24 24 0 0 0 28.37 45.23 Z M 40.22 28.55 A 28.8 28.8 0 0 1 59.78 28.55 L 57.95 32.99 A 24 24 0 0 0 42.05 32.99 Z M 62.22 29.56 A 28.8 28.8 0 0 1 76.07 43.39 L 71.63 45.23 A 24 24 0 0 0 60.39 34 Z M 77.08 45.83 A 28.8 28.8 0 0 1 77.31 64.77 L 72.76 63.25 A 24 24 0 0 0 72.64 47.67 Z"/><path d="M 29.52 62.49 A 21.6 21.6 0 0 1 29.58 48.59 L 34.03 50.43 A 16.8 16.8 0 0 0 34.07 60.96 Z M 30.59 46.15 A 21.6 21.6 0 0 1 40.53 36.22 L 42.37 40.66 A 16.8 16.8 0 0 0 35.04 48 Z M 42.97 35.21 A 21.6 21.6 0 0 1 57.03 35.21 L 55.19 39.65 A 16.8 16.8 0 0 0 44.81 39.65 Z M 59.47 36.22 A 21.6 21.6 0 0 1 69.41 46.15 L 64.96 48 A 16.8 16.8 0 0 0 57.63 40.66 Z M 70.42 48.59 A 21.6 21.6 0 0 1 70.48 62.49 L 65.93 60.96 A 16.8 16.8 0 0 0 65.97 50.43 Z"/><path d="M 36.34 60.2 A 14.4 14.4 0 0 1 36.25 51.36 L 40.71 53.21 A 9.6 9.6 0 0 0 40.9 58.68 Z M 37.26 48.92 A 14.4 14.4 0 0 1 43.3 42.89 L 45.14 47.35 A 9.6 9.6 0 0 0 41.72 50.77 Z M 45.73 41.88 A 14.4 14.4 0 0 1 54.27 41.88 L 52.42 46.34 A 9.6 9.6 0 0 0 47.58 46.34 Z M 56.7 42.89 A 14.4 14.4 0 0 1 62.74 48.92 L 58.28 50.77 A 9.6 9.6 0 0 0 54.86 47.35 Z M 63.75 51.36 A 14.4 14.4 0 0 1 63.66 60.2 L 59.1 58.68 A 9.6 9.6 0 0 0 59.29 53.21 Z"/></svg>
